<?xml version="1.0" standalone="no"?>
<!DOCTYPE svg PUBLIC "-//W3C//DTD SVG 20010904//EN"
 "http://www.w3.org/TR/2001/REC-SVG-20010904/DTD/svg10.dtd">
<svg version="1.0" xmlns="http://www.w3.org/2000/svg"
 width="1173.000000pt" height="1280.000000pt" viewBox="0 0 1173.000000 1280.000000"
 preserveAspectRatio="xMidYMid meet">
<metadata>
Created by potrace 1.15, written by Peter Selinger 2001-2017
</metadata>
<g transform="translate(0.000000,1280.000000) scale(0.100000,-0.100000)"
fill="#0000ff" stroke="none">
<path d="M5268 12011 l-3 -789 -604 349 c-333 192 -608 349 -611 349 -4 0
-593 -1014 -616 -1061 -1 -3 411 -243 916 -535 l919 -529 1 -1173 0 -1173 -27
15 c-16 8 -471 271 -1013 584 l-985 570 -3 1066 -2 1066 -615 0 -615 0 0 -706
c0 -668 -1 -706 -17 -699 -10 3 -317 179 -683 390 -366 211 -672 386 -680 390
-11 4 -87 -119 -305 -496 -160 -276 -298 -516 -307 -534 l-17 -31 700 -404
c384 -222 699 -406 699 -409 -1 -3 -263 -157 -583 -341 -418 -241 -582 -340
-581 -352 2 -16 576 -1021 598 -1045 8 -9 224 111 910 507 l899 519 46 -27
c1205 -694 1949 -1128 1943 -1133 -13 -14 -1954 -1131 -1970 -1136 -10 -2
-409 223 -927 522 -500 289 -914 524 -919 522 -6 -2 -24 -26 -39 -53 -109
-185 -567 -982 -572 -994 -4 -11 144 -101 600 -364 333 -193 605 -352 605
-355 0 -3 -304 -181 -676 -396 -372 -214 -682 -394 -690 -400 -11 -8 49 -119
292 -540 169 -291 308 -531 309 -533 2 -2 317 178 702 400 l698 404 5 -681 5
-680 618 -3 617 -2 0 1042 0 1043 208 119 c114 66 559 323 990 572 l782 452
-2 -1145 -3 -1145 -915 -529 c-503 -290 -914 -532 -913 -538 2 -7 599 -1048
608 -1059 2 -2 276 154 610 347 334 193 609 351 611 351 2 0 4 -360 4 -800 l0
-800 620 0 620 0 0 810 0 811 28 -15 c15 -8 280 -160 589 -339 389 -224 565
-321 571 -313 18 22 604 1045 604 1053 0 4 -402 240 -893 524 l-894 517 -3
1127 c-2 901 0 1126 10 1122 7 -3 445 -255 973 -560 l960 -555 3 -1041 2
-1041 620 0 620 0 2 680 3 681 685 -396 c377 -217 688 -394 692 -393 4 2 145
241 313 532 222 384 302 532 293 537 -7 5 -312 181 -678 392 -366 212 -665
389 -664 393 1 5 268 163 595 352 326 188 598 347 602 351 8 8 -575 1036 -602
1064 -4 4 -420 -231 -925 -523 -891 -515 -918 -529 -944 -516 -52 27 -1937
1117 -1944 1125 -9 8 1959 1146 1981 1145 9 0 415 -230 903 -512 487 -282 890
-512 895 -512 9 0 613 1043 613 1058 0 6 -263 162 -585 348 -463 267 -583 340
-573 349 7 7 312 184 678 395 366 210 670 387 676 394 16 16 -589 1061 -614
1060 -9 0 -318 -175 -686 -387 -367 -213 -670 -387 -672 -387 -2 0 -4 317 -4
705 l0 705 -615 0 -615 0 0 -1062 0 -1063 -987 -570 c-542 -313 -992 -574
-1000 -578 -11 -7 -13 183 -13 1150 l0 1158 900 519 900 519 -19 31 c-10 17
-148 256 -306 531 -158 275 -289 502 -291 504 -1 2 -267 -150 -591 -337 l-588
-339 -3 798 -2 799 -620 0 -620 0 -2 -789z"/>
</g>
</svg>
